<?xml version="1.0" encoding="UTF-8" standalone="no"?>
<svg
   xmlns:dc="http://purl.org/dc/elements/1.1/"
   xmlns:cc="http://creativecommons.org/ns#"
   xmlns:rdf="http://www.w3.org/1999/02/22-rdf-syntax-ns#"
   xmlns:svg="http://www.w3.org/2000/svg"
   xmlns="http://www.w3.org/2000/svg"
   xmlns:xlink="http://www.w3.org/1999/xlink"
   xmlns:sodipodi="http://sodipodi.sourceforge.net/DTD/sodipodi-0.dtd"
   xmlns:inkscape="http://www.inkscape.org/namespaces/inkscape"
   width="32px"
   height="32px"
   viewBox="0 0 32 32"
   version="1.1"
   id="svg129"
   sodipodi:docname="icon-fav-fav.svg"
   inkscape:version="1.0.2 (1.0.2+r75+1)">
  <metadata
     id="metadata133">
    <rdf:RDF>
      <cc:Work
         rdf:about="">
        <dc:format>image/svg+xml</dc:format>
        <dc:type
           rdf:resource="http://purl.org/dc/dcmitype/StillImage" />
        <dc:title>icon-fav-hover</dc:title>
      </cc:Work>
    </rdf:RDF>
  </metadata>
  <sodipodi:namedview
     pagecolor="#ffffff"
     bordercolor="#666666"
     borderopacity="1"
     objecttolerance="10"
     gridtolerance="10"
     guidetolerance="10"
     inkscape:pageopacity="0"
     inkscape:pageshadow="2"
     inkscape:window-width="1294"
     inkscape:window-height="704"
     id="namedview131"
     showgrid="false"
     inkscape:snap-bbox="true"
     inkscape:snap-global="true"
     inkscape:zoom="68.6"
     inkscape:cx="16.654587"
     inkscape:cy="21.231521"
     inkscape:window-x="72"
     inkscape:window-y="27"
     inkscape:window-maximized="1"
     inkscape:current-layer="svg129"
     inkscape:document-rotation="0" />
  <!-- Generator: Sketch 63.1 (92452) - https://sketch.com -->
  <title
     id="title113">icon-fav-hover</title>
  <desc
     id="desc115">Created with Sketch.</desc>
  <defs
     id="defs118">
    <path
       d="M16.277005,9.49708565 C17.2350987,8.53854203 18.5348228,8 19.8900901,8 C21.2453574,8 22.5450815,8.53854203 23.5031752,9.49708565 C24.461458,10.4549185 25,11.7546426 25,13.1099099 C25,14.4651772 24.461458,15.7649013 23.5030448,16.7228646 L16.5555186,23.6703908 C16.2485981,23.9773114 15.7509815,23.9773114 15.444061,23.6703908 L8.49653479,16.7228646 C6.50115505,14.7274848 6.50115507,11.492335 8.49653484,9.49695525 C10.4919146,7.50157548 13.7270644,7.50157545 15.7224442,9.4969552 L15.9997898,9.77430079 L16.277005,9.49708565 Z M15.9997898,22.0032043 L21.5585127,16.4444814 L22.3917176,15.6112765 C23.0553247,14.9479809 23.4281615,14.0481719 23.4281615,13.1099099 C23.4281615,12.1716479 23.0553247,11.271839 22.3917176,10.6085433 C21.728161,9.94467529 20.8283521,9.5718385 19.8900901,9.5718385 C18.9518281,9.5718385 18.0520191,9.94467529 17.388593,10.6084129 L16.5555186,11.4414873 C16.2485981,11.7484078 15.7509815,11.7484078 15.444061,11.4414873 L14.6109866,10.6084129 C13.2294479,9.22687423 10.9895312,9.22687425 9.6079925,10.6084129 C8.22645385,11.9899516 8.22645383,14.2298683 9.60799246,15.611407 L15.9997898,22.0032043 Z"
       id="path-1" />
  </defs>
  <g
     id="GIFOS"
     stroke="none"
     stroke-width="1"
     fill="none"
     fill-rule="evenodd">
    <g
       id="00-UI-Kit"
       transform="translate(-858.000000, -2777.000000)">
      <g
         id="icon-fav-hover"
         transform="translate(858.000000, 2777.000000)">
        <rect
           id="Rectangle-Copy-7"
           fill="#FFFFFF"
           fill-rule="nonzero"
           x="0"
           y="0"
           width="32"
           height="32"
           rx="6" />
        <mask
           id="mask-2"
           fill="white">
          <use
             xlink:href="#path-1"
             id="use121" />
        </mask>
        <use
           fill="#572EE5"
           fill-rule="nonzero"
           xlink:href="#path-1"
           id="use124" />
      </g>
    </g>
  </g>
  <path
     style="fill:none;stroke-width:0.0623782"
     d="M 12.589806,18.510721 C 9.700207,15.614575 9.1863167,15.072278 9.0253034,14.749176 8.7377228,14.172094 8.6245243,13.706125 8.6245243,13.099415 c 0,-0.973931 0.3283557,-1.749052 1.0437691,-2.463937 0.8911256,-0.8904683 2.0826876,-1.217448 3.3010356,-0.9058469 0.714324,0.1826932 1.050946,0.3947289 1.849043,1.1646979 1.110242,1.071113 1.253014,1.071113 2.363256,0 0.396498,-0.382524 0.866182,-0.773305 1.043743,-0.868402 0.423568,-0.2268521 1.192421,-0.4199206 1.667648,-0.4187672 1.535852,0.00373 2.941989,1.0793852 3.37593,2.5824962 0.139567,0.48344 0.139664,1.336539 1.87e-4,1.816257 -0.263324,0.905803 -0.234384,0.87202 -3.85896,4.504808 C 17.553192,20.37193 16.018605,21.894737 16,21.894737 c -0.01861,0 -1.553192,-1.522807 -3.410194,-3.384016 z"
     id="path135" />
  <path
     style="fill:none;stroke-width:0.0623782"
     d="M 12.589806,18.510721 C 9.700207,15.614575 9.1863167,15.072278 9.0253034,14.749176 8.7377228,14.172094 8.6245243,13.706125 8.6245243,13.099415 c 0,-0.973931 0.3283557,-1.749052 1.0437691,-2.463937 0.8911256,-0.8904683 2.0826876,-1.217448 3.3010356,-0.9058469 0.714324,0.1826932 1.050946,0.3947289 1.849043,1.1646979 1.110242,1.071113 1.253014,1.071113 2.363256,0 0.396498,-0.382524 0.866182,-0.773305 1.043743,-0.868402 0.423568,-0.2268521 1.192421,-0.4199206 1.667648,-0.4187672 1.535852,0.00373 2.941989,1.0793852 3.37593,2.5824962 0.139567,0.48344 0.139664,1.336539 1.87e-4,1.816257 -0.263324,0.905803 -0.234384,0.87202 -3.85896,4.504808 C 17.553192,20.37193 16.018605,21.894737 16,21.894737 c -0.01861,0 -1.553192,-1.522807 -3.410194,-3.384016 z"
     id="path137" />
  <path
     style="fill:none;stroke-width:0.0623782"
     d="M 12.589806,18.510721 C 9.700207,15.614575 9.1863167,15.072278 9.0253034,14.749176 8.7377228,14.172094 8.6245243,13.706125 8.6245243,13.099415 c 0,-0.973931 0.3283557,-1.749052 1.0437691,-2.463937 0.8911256,-0.8904683 2.0826876,-1.217448 3.3010356,-0.9058469 0.714324,0.1826932 1.050946,0.3947289 1.849043,1.1646979 1.110242,1.071113 1.253014,1.071113 2.363256,0 0.396498,-0.382524 0.866182,-0.773305 1.043743,-0.868402 0.423568,-0.2268521 1.192421,-0.4199206 1.667648,-0.4187672 1.535852,0.00373 2.941989,1.0793852 3.37593,2.5824962 0.139567,0.48344 0.139664,1.336539 1.87e-4,1.816257 -0.263324,0.905803 -0.234384,0.87202 -3.85896,4.504808 C 17.553192,20.37193 16.018605,21.894737 16,21.894737 c -0.01861,0 -1.553192,-1.522807 -3.410194,-3.384016 z"
     id="path139" />
  <path
     style="fill:#572ee5;fill-opacity:1;stroke-width:0.0623782"
     d="M 12.589806,18.510721 C 9.700207,15.614575 9.1863167,15.072278 9.0253034,14.749176 8.7377228,14.172094 8.6245243,13.706125 8.6245243,13.099415 c 0,-0.973931 0.3283557,-1.749052 1.0437691,-2.463937 0.8911256,-0.8904683 2.0826876,-1.217448 3.3010356,-0.9058469 0.714324,0.1826932 1.050946,0.3947289 1.849043,1.1646979 1.110242,1.071113 1.253014,1.071113 2.363256,0 0.396498,-0.382524 0.866182,-0.773305 1.043743,-0.868402 0.423568,-0.2268521 1.192421,-0.4199206 1.667648,-0.4187672 1.535852,0.00373 2.941989,1.0793852 3.37593,2.5824962 0.139567,0.48344 0.139664,1.336539 1.87e-4,1.816257 -0.263324,0.905803 -0.234384,0.87202 -3.85896,4.504808 C 17.553192,20.37193 16.018605,21.894737 16,21.894737 c -0.01861,0 -1.553192,-1.522807 -3.410194,-3.384016 z"
     id="path145" />
  <path
     style="fill:#572ee5;fill-opacity:1;stroke-width:0.0623782"
     d=""
     id="path147" />
  <path
     style="fill:#572ee5;fill-opacity:1;stroke-width:0.0623782"
     d=""
     id="path149" />
  <path
     style="fill:#572ee5;fill-opacity:1;stroke-width:0.0205877"
     d="m 15.825005,23.866361 c -0.05662,-0.01403 -0.144629,-0.0465 -0.195583,-0.07216 C 15.515388,23.736785 8.3625847,16.590531 8.1474753,16.319109 7.2156757,15.143376 6.8397442,13.69827 7.0870472,12.242751 7.3945398,10.432983 8.6874905,8.9051465 10.423526,8.3001466 c 1.693707,-0.5902492 3.569158,-0.2535178 4.938256,0.8866485 0.09625,0.080153 0.279123,0.245586 0.40639,0.3676279 l 0.231394,0.2218943 0.252416,-0.2408968 c 0.492046,-0.4695916 0.852856,-0.7272237 1.384737,-0.9887538 0.378596,-0.1861588 0.648497,-0.287013 1.01909,-0.380805 0.679417,-0.1719513 1.398983,-0.1996155 2.097414,-0.080637 1.503045,0.2560464 2.862238,1.2239174 3.597823,2.5619823 0.60503,1.100578 0.783479,2.357272 0.509604,3.588785 -0.108735,0.488938 -0.328992,1.038111 -0.595514,1.48481 -0.334791,0.561122 -0.23428,0.455231 -4.166759,4.389808 -3.861877,3.863937 -3.698316,3.708182 -3.95013,3.76161 -0.132891,0.0282 -0.189975,0.02716 -0.323242,-0.0059 z m 3.492556,-5.174524 c 3.18372,-3.186126 3.383673,-3.392748 3.583281,-3.70278 0.189347,-0.294093 0.383487,-0.787884 0.472672,-1.202231 0.04053,-0.188299 0.04653,-0.275896 0.04653,-0.679393 0,-0.404403 -0.0059,-0.490563 -0.04668,-0.678538 -0.109581,-0.505437 -0.318673,-0.990383 -0.595108,-1.380229 -0.177485,-0.2503 -0.577199,-0.650183 -0.828418,-0.828766 -0.358686,-0.254978 -0.907512,-0.4961498 -1.31761,-0.5789997 -0.942117,-0.1903308 -1.887152,-0.014936 -2.676397,0.4967287 -0.259658,0.168335 -0.32997,0.23065 -0.936739,0.8302 -0.594106,0.587039 -0.65284,0.631769 -0.891102,0.678645 -0.100886,0.01985 -0.155088,0.01985 -0.255974,0 -0.238875,-0.047 -0.296847,-0.09116 -0.891102,-0.678841 -0.604518,-0.59783 -0.675164,-0.660427 -0.936739,-0.830004 -1.035478,-0.6712963 -2.338527,-0.7585419 -3.452822,-0.231184 -1.0148891,0.480312 -1.7246156,1.388833 -1.9618013,2.511301 -0.062567,0.296093 -0.078627,0.867227 -0.033069,1.176001 0.092229,0.625099 0.2945571,1.120909 0.6668833,1.634216 0.073747,0.101671 1.241497,1.284719 3.419084,3.463874 1.818896,1.820207 3.311823,3.309467 3.317616,3.309467 0.0058,0 1.498667,-1.48926 3.317498,-3.309467 z"
     id="path151" />
  <path
     style="fill:#572ee5;fill-opacity:1;stroke-width:0.0205877"
     d="m 15.825005,23.866361 c -0.05662,-0.01403 -0.144629,-0.0465 -0.195583,-0.07216 C 15.515388,23.736785 8.3625847,16.590531 8.1474753,16.319109 7.2579733,15.196747 6.877119,13.844925 7.0570289,12.448628 7.3143686,10.451391 8.7459851,8.7796722 10.680326,8.2176522 11.177835,8.0731017 11.56389,8.0195749 12.108931,8.0195749 c 0.587289,0 1.013737,0.064512 1.541264,0.2331594 0.812864,0.259868 1.421893,0.6341828 2.118097,1.3018037 l 0.231514,0.2220092 0.248115,-0.2377078 C 16.737,9.0702749 17.098588,8.81173 17.636719,8.5458115 c 0.543064,-0.2683557 1.093498,-0.4328998 1.688189,-0.5046592 0.264637,-0.031933 0.867684,-0.031933 1.132322,0 0.964867,0.1164274 1.882422,0.5019623 2.635221,1.1072581 0.230949,0.1856977 0.624399,0.5806855 0.795706,0.798816 0.956275,1.2176606 1.309271,2.7744006 0.972493,4.2887656 -0.109204,0.491047 -0.326946,1.034683 -0.593073,1.48072 -0.337601,0.565831 -0.233113,0.455711 -4.1692,4.393898 -3.861877,3.863937 -3.698316,3.708182 -3.95013,3.761611 -0.132891,0.0282 -0.189975,0.02716 -0.323242,-0.0059 z m 3.219606,-5.228717 c 1.772833,-1.774914 3.156259,-3.291181 3.238535,-3.385981 0.371507,-0.42806 0.63574,-0.857496 0.757892,-1.455933 0.05621,-0.275361 0.07593,-0.773694 0.04238,-1.070559 -0.174922,-1.547574 -0.987841,-2.7891022 -2.536965,-3.1009458 -0.19765,-0.039788 -0.297883,-0.046971 -0.655383,-0.046971 -0.3575,0 -0.457733,0.00718 -0.655384,0.046971 -0.335244,0.067486 -0.633742,0.1700445 -0.94016,0.3230233 -0.423743,0.2115525 -0.544586,0.9979475 -1.201465,1.6456815 -0.620647,0.612004 -0.674465,0.152369 -0.903271,0.199635 -0.155927,0.03221 -0.419761,-0.0025 -0.577582,-0.0771 -0.107465,-0.05082 -0.214004,-0.198181 -0.713303,-0.690813 C 14.232714,10.36637 14.065694,10.356983 13.62244,10.138036 13.300322,9.978925 13.032715,9.8621651 12.683812,9.7919664 c -0.200424,-0.040325 -0.214286,-0.077977 -0.572986,-0.077977 -0.3575,0 -0.459628,-0.00482 -0.657278,0.034969 -1.44337,0.290555 -2.1564343,1.267822 -2.4617356,2.708499 -0.055566,0.262209 -0.094221,0.736857 -0.060505,1.026381 0.07675,0.659052 0.3416355,1.879298 0.8784892,1.556003 3.4732534,-2.0916 6.1774134,6.489959 6.1973094,6.489959 0.0062,0 1.264671,-1.117243 3.037505,-2.892156 z"
     id="path153"
     sodipodi:nodetypes="ccsssssscssssssssssccssscsscssscsssscsssss" />
  <path
     style="fill:#572ee5;fill-opacity:1;stroke-width:0.011034"
     d="M 12.253115,18.242656 C 9.7359427,15.722152 9.4013907,15.382374 9.2832205,15.226371 8.9612641,14.801337 8.7331334,14.278603 8.6360917,13.743552 c -0.042602,-0.234891 -0.05526,-0.384559 -0.054591,-0.645488 0.00113,-0.441138 0.067332,-0.81 0.2198172,-1.224771 0.058817,-0.159987 0.2517567,-0.555393 0.2754405,-0.564481 0.035531,-0.01363 0.033273,0.006 -0.00847,0.07347 -0.06252,0.101114 -0.1979493,0.382963 -0.2445707,0.508989 -0.083624,0.226053 -0.1449482,0.483939 -0.1793924,0.754401 -0.027387,0.215051 -0.027557,0.700076 -3.185e-4,0.911754 0.050833,0.395039 0.1611378,0.755887 0.3444318,1.126764 0.1206754,0.244175 0.2401242,0.395543 0.6985789,0.885254 0.4416585,0.471769 1.0374935,1.075645 3.0404395,3.08147 1.834732,1.837369 2.048611,2.055078 2.018931,2.055078 -0.02946,0 -0.310025,-0.277194 -2.493277,-2.463335 z"
     id="path155" />
  <path
     style="fill:#572ee5;fill-opacity:1;stroke-width:0.011034"
     d="m 19.382831,18.540573 c 2.347756,-2.351103 2.836899,-2.852322 3.220151,-3.299651 0.198645,-0.231857 0.346854,-0.435535 0.43923,-0.603618 0.119018,-0.216561 0.251356,-0.63792 0.296097,-0.942763 0.06715,-0.457556 0.04633,-1.070326 -0.04918,-1.446955 -0.06816,-0.268772 -0.203862,-0.593029 -0.365992,-0.874499 -0.03938,-0.06837 -0.03969,-0.0698 -0.01427,-0.0662 0.02165,0.0031 0.0435,0.03868 0.130903,0.213323 0.126393,0.252556 0.206728,0.465462 0.270537,0.716992 0.07898,0.311329 0.09517,0.439093 0.101393,0.80018 0.0061,0.354083 -0.0061,0.506704 -0.06268,0.781493 -0.0955,0.464165 -0.2929,0.924384 -0.561639,1.309445 -0.153047,0.219292 -0.323393,0.393765 -3.046076,3.119857 -2.173113,2.175834 -2.458534,2.457818 -2.487779,2.457818 -0.02946,0 0.201148,-0.234516 2.1293,-2.165418 z"
     id="path157" />
  <path
     style="fill:#572ee5;fill-opacity:1;stroke-width:0.011034"
     d="M 15.205554,11.247412 C 15.147901,11.195062 14.979081,11.036966 14.830399,10.896087 14.159529,10.26043 13.867335,10.04348 13.464307,9.8817836 12.702485,9.5761385 11.847243,9.5284596 11.112658,9.7506813 10.773223,9.8533651 10.430769,10.022124 10.135442,10.232247 9.7992829,10.471422 9.4297994,10.846603 9.1960322,11.186144 9.1046659,11.318851 9.1119,11.31073 9.0945826,11.300027 9.0778898,11.289711 9.1336206,11.197497 9.261989,11.023034 9.4196128,10.808809 9.6583832,10.555015 9.8595925,10.387828 10.343623,9.9856408 10.957307,9.7114984 11.58641,9.6164315 c 0.27952,-0.04224 0.765349,-0.04273 1.037538,-0.00105 0.627883,0.096152 1.19153,0.3415865 1.688982,0.7354495 0.06466,0.05119 0.312165,0.287454 0.567121,0.541353 0.432726,0.430931 0.550879,0.559872 0.325503,0.355226 z"
     id="path159" />
  <path
     style="fill:#572ee5;fill-opacity:1;stroke-width:0.011034"
     d=""
     id="path161" />
  <path
     style="fill:#572ee5;fill-opacity:1;stroke-width:0.011034"
     d="m 17.204731,10.73128 c 0,0 0.33779,-0.365328 0.403898,-0.417807 0.576144,-0.4573653 1.342404,-0.9605875 2.056298,-0.9964604 0.630474,-0.031681 1.387004,0.2352689 1.934922,0.493721 0.362215,0.1708566 0.657374,0.3274874 0.956893,0.6256354 0.202123,0.201197 0.375788,0.348286 0.413551,0.63266 0.024,0.180759 -0.04592,0.229854 -0.07166,0.229854 -0.01378,0 -0.210689,0.0046 -0.269124,-0.08201 -0.278869,-0.41346 -0.550184,-0.77608 -0.985302,-1.040258 -0.506966,-0.307799 -1.051752,-0.4191739 -1.648868,-0.4479931 -0.484985,-0.023407 -1.091575,0.2633515 -1.558306,0.5021881 -0.231268,0.118345 -0.573952,0.305533 -1.135329,0.835914 -0.288755,0.272813 -0.602465,0.269072 -0.621232,0.274551 -0.0071,0.0021 -0.02111,-0.458724 0.317699,-0.552699 z"
     id="path163"
     sodipodi:nodetypes="csssssscsssscsc" />
  <path
     style="fill:#572ee5;fill-opacity:1;stroke-width:0.011034"
     d=""
     id="path165" />
  <path
     style="fill:#572ee5;fill-opacity:1;stroke-width:0.011034"
     d="M 15.337961,21.334687 C 14.976913,20.9736 14.686068,20.678165 14.69164,20.678165 c 0.0056,0 0.01951,0.0085 0.03098,0.01887 0.01552,0.01405 0.02295,0.01547 0.02908,0.0056 0.0054,-0.0087 0.221444,0.196599 0.62463,0.593515 0.339024,0.333751 0.619748,0.606821 0.623831,0.606821 0.0041,0 0.28481,-0.272948 0.623839,-0.60655 0.394478,-0.388165 0.619316,-0.601857 0.624472,-0.593515 0.0059,0.0095 0.01368,0.0079 0.02891,-0.0058 0.01147,-0.01038 0.02541,-0.01887 0.03098,-0.01887 0.0056,0 -0.285273,0.295435 -0.646321,0.656522 C 16.30099,21.695774 16.003073,21.991209 16,21.991209 c -0.0031,0 -0.30099,-0.295435 -0.662039,-0.656522 z"
     id="path167" />
  <path
     style="fill:#572ee5;fill-opacity:1;stroke-width:0.00390625"
     d=""
     id="path169" />
  <path
     style="fill:#572ee5;fill-opacity:1;stroke-width:0.00390625"
     d=""
     id="path171" />
  <path
     style="fill:#572ee5;fill-opacity:1;stroke-width:0.00390625"
     d=""
     id="path173" />
  <path
     style="fill:#572ee5;fill-opacity:1;stroke-width:0.00390625"
     d=""
     id="path175" />
  <path
     style="fill:#572ee5;fill-opacity:1;stroke-width:0.00390625"
     d=""
     id="path177" />
  <path
     style="fill:#572ee5;fill-opacity:1;stroke-width:0.00390625"
     d=""
     id="path179" />
</svg>
